<svg xmlns="http://www.w3.org/2000/svg" xmlns:xlink="http://www.w3.org/1999/xlink" version="1.1" x="0px" y="0px" viewBox="0 0 128 160" style="enable-background:new 0 0 128 128;" xml:space="preserve"><g><path d="M64.1,49.2c1.4,0,2.6-1.1,2.6-2.6v-5.2c0-1.4-1.1-2.6-2.6-2.6c-1.4,0-2.6,1.1-2.6,2.6v5.2C61.6,48,62.7,49.2,64.1,49.2z"/><path d="M83.3,57.2c0.7,0,1.3-0.3,1.8-0.8l3.7-3.7c1-1,1-2.6,0-3.6c-1-1-2.6-1-3.6,0l-3.7,3.7c-0.5,0.5-0.8,1.1-0.8,1.8   c0,0.7,0.3,1.3,0.8,1.8C82,56.9,82.6,57.2,83.3,57.2z"/><path d="M88.6,73.9c0,1.4,1.1,2.6,2.6,2.6h5.2c1.4,0,2.6-1.1,2.6-2.6s-1.1-2.6-2.6-2.6h-5.2C89.8,71.3,88.6,72.5,88.6,73.9z"/><path d="M84.9,91.3c-1-1-2.6-1-3.6,0c-0.5,0.5-0.8,1.1-0.8,1.8c0,0.7,0.3,1.3,0.8,1.8l3.7,3.7c0.5,0.5,1.1,0.8,1.8,0.8   c0.7,0,1.3-0.3,1.8-0.8c0.5-0.5,0.8-1.1,0.8-1.8c0-0.7-0.3-1.3-0.8-1.8L84.9,91.3z"/><path d="M63.9,98.4c-1.4,0-2.6,1.1-2.6,2.6v5.2c0,1.4,1.1,2.6,2.6,2.6c1.4,0,2.6-1.1,2.6-2.6V101C66.4,99.5,65.3,98.4,63.9,98.4z"/><path d="M42.9,91.1l-3.7,3.7c-0.5,0.5-0.8,1.1-0.8,1.8c0,0.7,0.3,1.3,0.8,1.8c0.5,0.5,1.1,0.8,1.8,0.8c0.7,0,1.3-0.3,1.8-0.8   l3.7-3.7c0.5-0.5,0.8-1.1,0.8-1.8c0-0.7-0.3-1.3-0.8-1.8C45.5,90.1,43.9,90.1,42.9,91.1z"/><path d="M39.4,73.7c0-1.4-1.1-2.6-2.6-2.6h-5.2c-1.4,0-2.6,1.1-2.6,2.6c0,1.4,1.1,2.6,2.6,2.6h5.2C38.2,76.2,39.4,75.1,39.4,73.7z"/><path d="M43,49c-1-1-2.6-1-3.6,0c-0.5,0.5-0.8,1.1-0.8,1.8s0.3,1.3,0.8,1.8l3.7,3.7c0.5,0.5,1.1,0.8,1.8,0.8c0.7,0,1.3-0.3,1.8-0.8   c0.5-0.5,0.8-1.1,0.8-1.8c0-0.7-0.3-1.3-0.8-1.8L43,49z"/><path d="M81.4,73.9c0-1.2-1-2.2-2.2-2.2h-9.5c-1.1-2.9-4-4.5-7.1-3.9c-2.4,0.5-4.4,2.4-4.9,4.9c-0.4,1.9,0.1,3.8,1.3,5.2   c1.2,1.4,2.9,2.3,4.8,2.3c2.6,0,4.9-1.6,5.8-4.1h9.5C80.4,76.1,81.4,75.1,81.4,73.9z"/><path d="M108.7,46.9l6.1-4.4c0.8-0.6,0.9-1.6,0.4-2.4l-7.3-10.1c-0.6-0.8-1.6-0.9-2.4-0.4l-7,5.1C91,28,81.6,23.5,71.3,22.1V14h4   c3.3,0,6-2.7,6-6s-2.7-6-6-6H52.7c-3.3,0-6,2.7-6,6s2.7,6,6,6h4v8.1C46.4,23.5,37,28,29.5,34.6l-7-5.1c-0.8-0.6-1.9-0.4-2.4,0.4   L12.8,40c-0.6,0.8-0.4,1.9,0.4,2.4l6.1,4.4c-4.8,7.9-7.5,17.1-7.5,26.9c0,28.8,23.4,52.2,52.2,52.2v0c28.8,0,52.2-23.4,52.2-52.2   C116.2,63.9,113.5,54.7,108.7,46.9z M64,115.8L64,115.8c-23.2,0-42-18.9-42-42c0-23.2,18.9-42,42-42v0c23.2,0,42,18.9,42,42   C106,97,87.2,115.8,64,115.8z"/></g><text x="0" y="143" fill="#000000" font-size="5px" font-weight="bold" font-family="'Helvetica Neue', Helvetica, Arial-Unicode, Arial, Sans-serif">Created by visual language</text><text x="0" y="148" fill="#000000" font-size="5px" font-weight="bold" font-family="'Helvetica Neue', Helvetica, Arial-Unicode, Arial, Sans-serif">from the Noun Project</text></svg>